<svg height="512pt" viewBox="0 0 512 512.032" width="512pt" xmlns="http://www.w3.org/2000/svg"><path d="m255.890625 308.007812c-8.128906 0-16.265625-1.960937-23.546875-5.679687-12.375-6.273437-21.566406-17.015625-25.863281-30.230469-4.304688-13.210937-3.191407-27.289062 3.121093-39.65625 8.902344-17.53125 26.671876-28.441406 46.351563-28.441406 8.128906 0 16.257813 1.960938 23.519531 5.671875 12.394532 6.289063 21.59375 17.039063 25.890625 30.265625 4.292969 13.207031 3.183594 27.285156-3.128906 39.636719-8.898437 17.539062-26.65625 28.433593-46.34375 28.433593zm.054687-88.007812c-13.625 0-25.917968 7.542969-32.09375 19.703125-4.378906 8.5625-5.144531 18.304687-2.167968 27.441406 2.972656 9.152344 9.34375 16.574219 17.910156 20.925781 5.128906 2.617188 10.601562 3.9375 16.289062 3.9375 13.621094 0 25.917969-7.542968 32.085938-19.6875 4.375-8.558593 5.144531-18.296874 2.167969-27.441406-2.976563-9.152344-9.34375-16.589844-17.933594-20.949218-5.105469-2.609376-10.570313-3.929688-16.257813-3.929688zm0 0"/><path d="m255.90625 280c-3.761719 0-7.511719-.894531-10.871094-2.617188-5.699218-2.878906-9.945312-7.832031-11.929687-13.933593-1.984375-6.105469-1.480469-12.609375 1.441406-18.320313 4.101563-8.082031 12.292969-13.121094 21.382813-13.121094 3.761718 0 7.519531.902344 10.878906 2.625 5.6875 2.878907 9.9375 7.832032 11.921875 13.933594 1.984375 6.105469 1.480469 12.609375-1.441407 18.320313-4.09375 8.082031-12.296874 13.113281-21.382812 13.113281zm.015625-31.992188c-3.023437 0-5.761719 1.679688-7.128906 4.375-.976563 1.914063-1.144531 4.082032-.488281 6.113282.664062 2.023437 2.074218 3.671875 3.96875 4.625 3.921874 2.03125 8.824218.335937 10.753906-3.488282.972656-1.914062 1.140625-4.082031.484375-6.113281-.660157-2.023437-2.070313-3.671875-3.964844-4.625-1.152344-.589843-2.371094-.886719-3.625-.886719zm0 0"/><path d="m143.3125 484.96875c-1.214844 0-2.460938-.28125-3.621094-.871094-3.9375-2.007812-5.503906-6.824218-3.496094-10.761718l14.550782-28.550782c2.007812-3.9375 6.808594-5.503906 10.757812-3.496094 3.9375 2.007813 5.503906 6.824219 3.496094 10.757813l-14.550781 28.554687c-1.414063 2.773438-4.222657 4.367188-7.136719 4.367188zm0 0"/><path d="m431.265625 439.367188c-2.046875 0-4.097656-.78125-5.65625-2.34375l-22.609375-22.617188c-3.125-3.125-3.125-8.183594 0-11.308594 3.128906-3.128906 8.1875-3.128906 11.3125 0l22.609375 22.613282c3.128906 3.128906 3.128906 8.183593 0 11.3125-1.558594 1.5625-3.609375 2.34375-5.65625 2.34375zm0 0"/><path d="m448.289062 166.007812c-2.910156 0-5.71875-1.59375-7.136718-4.367187-2.007813-3.9375-.445313-8.761719 3.496094-10.761719l28.59375-14.566406c3.933593-2.015625 8.75-.449219 10.757812 3.496094 2.007812 3.945312.449219 8.757812-3.496094 10.757812l-28.589844 14.570313c-1.160156.589843-2.410156.871093-3.625.871093zm0 0"/><path d="m222.128906 50.710938c-3.863281 0-7.261718-2.808594-7.886718-6.75l-5.015626-31.632813c-.695312-4.359375 2.277344-8.464844 6.648438-9.152344 4.398438-.726562 8.453125 2.28125 9.152344 6.648438l5.015625 31.632812c.695312 4.359375-2.28125 8.464844-6.648438 9.152344-.425781.070313-.847656.101563-1.265625.101563zm0 0"/><path d="m256.136719 512.03125c-81.800781 0-159.3125-39.464844-207.34375-105.550781-82.941407-114.183594-57.527344-274.59375 56.640625-357.570313 44.046875-32 96.007812-48.910156 150.273437-48.910156 81.796875 0 159.292969 39.472656 207.320313 105.566406 40.183594 55.3125 56.4375 122.96875 45.742187 190.503906-10.703125 67.53125-47.054687 126.851563-102.367187 167.042969-44.03125 32.007813-95.992188 48.917969-150.265625 48.917969zm-.421875-496.039062c-50.863282 0-99.578125 15.855468-140.863282 45.847656-107.050781 77.800781-130.867187 228.183594-53.105468 335.230468 45.03125 61.96875 117.703125 98.960938 194.398437 98.960938 50.855469 0 99.570313-15.855469 140.855469-45.855469 51.859375-37.679687 85.9375-93.296875 95.96875-156.609375 10.023438-63.308594-5.199219-126.742187-42.878906-178.589844-45.023438-61.984374-117.679688-98.984374-194.375-98.984374zm0 0"/><path d="m42.578125 230.222656c-.417969 0-.832031-.03125-1.257813-.101562l-31.582031-5.007813c-4.367187-.6875-7.34375-4.792969-6.648437-9.152343.695312-4.367188 4.832031-7.359376 9.152344-6.648438l31.582031 5.007812c4.371093.6875 7.34375 4.792969 6.648437 9.152344-.632812 3.953125-4.03125 6.75-7.894531 6.75zm0 0"/><path d="m256.121094 480c-84.757813 0-161.296875-46.863281-199.742188-122.320312-27.160156-53.296876-31.929687-113.984376-13.449218-170.878907 18.488281-56.90625 58.015624-103.191406 111.3125-130.34375 31.832031-16.21875 65.976562-24.449219 101.472656-24.449219 84.78125 0 161.3125 46.878907 199.734375 122.34375 27.152343 53.28125 31.921875 113.960938 13.441406 170.855469-18.496094 56.90625-58.023437 103.199219-111.3125 130.351563-31.824219 16.226562-65.960937 24.441406-101.457031 24.441406zm-.398438-431.992188c-32.945312 0-64.640625 7.640626-94.199218 22.695313-49.496094 25.207031-86.195313 68.191406-103.363282 121.039063-17.167968 52.832031-12.734375 109.1875 12.472656 158.671874 35.710938 70.066407 106.785157 113.585938 185.496094 113.585938 32.945313 0 64.632813-7.632812 94.183594-22.6875 49.488281-25.214844 86.191406-68.199219 103.359375-121.046875 17.167969-52.832031 12.738281-109.175781-12.476563-158.648437-35.683593-70.082032-106.753906-113.609376-185.472656-113.609376zm0 0"/><path d="m41.019531 285.902344c-3.867187 0-7.265625-2.804688-7.890625-6.75-.695312-4.359375 2.28125-8.464844 6.648438-9.152344l171.191406-27.128906c4.375-.71875 8.464844 2.28125 9.152344 6.648437.695312 4.359375-2.28125 8.464844-6.648438 9.152344l-171.199218 27.136719c-.421876.0625-.847657.09375-1.253907.09375zm0 0"/><path d="m44.761719 309.617188c-3.863281 0-7.265625-2.808594-7.886719-6.753907-.699219-4.359375 2.277344-8.464843 6.648438-9.152343l171.207031-27.125c4.328125-.722657 8.457031 2.277343 9.152343 6.644531.695313 4.363281-2.28125 8.464843-6.648437 9.152343l-171.207031 27.136719c-.425782.066407-.851563.097657-1.265625.097657zm0 0"/><path d="m94.929688 408.03125c-2.046876 0-4.097657-.785156-5.65625-2.34375-3.128907-3.128906-3.128907-8.183594 0-11.3125l122.566406-122.558594c3.128906-3.128906 8.1875-3.128906 11.3125 0 3.128906 3.128906 3.128906 8.183594 0 11.3125l-122.566406 122.558594c-1.558594 1.558594-3.609376 2.34375-5.65625 2.34375zm0 0"/><path d="m111.90625 425.015625c-2.046875 0-4.097656-.785156-5.65625-2.34375-3.128906-3.128906-3.128906-8.183594 0-11.3125l122.566406-122.574219c3.128906-3.128906 8.183594-3.128906 11.3125 0 3.128906 3.125 3.128906 8.183594 0 11.3125l-122.566406 122.574219c-1.5625 1.558594-3.609375 2.34375-5.65625 2.34375zm0 0"/><path d="m210.328125 475.160156c-.414063 0-.832031-.03125-1.253906-.105468-4.367188-.6875-7.34375-4.789063-6.648438-9.152344l27.136719-171.199219c.6875-4.367187 4.78125-7.375 9.152344-6.648437 4.367187.6875 7.34375 4.792968 6.648437 9.152343l-27.136719 171.199219c-.632812 3.945312-4.03125 6.753906-7.898437 6.753906zm0 0"/><path d="m234.050781 478.902344c-.417969 0-.832031-.03125-1.257812-.101563-4.367188-.6875-7.34375-4.792969-6.648438-9.152343l27.121094-171.207032c.6875-4.363281 4.832031-7.363281 9.152344-6.648437 4.367187.6875 7.34375 4.792969 6.648437 9.152343l-27.121094 171.207032c-.625 3.945312-4.03125 6.75-7.894531 6.75zm0 0"/><path d="m343.136719 461.632812c-2.910157 0-5.726563-1.59375-7.136719-4.367187l-78.679688-154.464844c-2.007812-3.9375-.445312-8.761719 3.496094-10.761719 3.9375-2.015624 8.761719-.445312 10.761719 3.496094l78.679687 154.464844c2.007813 3.9375.449219 8.761719-3.496093 10.761719-1.160157.589843-2.398438.871093-3.625.871093zm0 0"/><path d="m364.546875 450.71875c-2.914063 0-5.722656-1.589844-7.136719-4.367188l-78.710937-154.441406c-2.007813-3.933594-.449219-8.757812 3.496093-10.757812 3.933594-2.015625 8.75-.449219 10.757813 3.496094l78.710937 154.441406c2.007813 3.933594.449219 8.757812-3.496093 10.757812-1.160157.59375-2.40625.871094-3.621094.871094zm0 0"/><path d="m442.617188 372.632812c-1.214844 0-2.464844-.28125-3.625-.871093l-154.4375-78.730469c-3.9375-2.007812-5.503907-6.824219-3.496094-10.757812 2-3.929688 6.808594-5.511719 10.757812-3.496094l154.441406 78.726562c3.9375 2.007813 5.503907 6.824219 3.496094 10.761719-1.417968 2.773437-4.222656 4.367187-7.136718 4.367187zm0 0"/><path d="m453.53125 351.214844c-1.21875 0-2.464844-.277344-3.625-.871094l-154.464844-78.6875c-3.9375-2-5.503906-6.824219-3.496094-10.761719 1.992188-3.933593 6.808594-5.503906 10.761719-3.496093l154.460938 78.691406c3.9375 2 5.503906 6.820312 3.496093 10.757812-1.40625 2.777344-4.222656 4.367188-7.132812 4.367188zm0 0"/><path d="m299.59375 269.222656c-3.863281 0-7.273438-2.816406-7.886719-6.75-.699219-4.367187 2.277344-8.464844 6.648438-9.152344l171.199219-27.089843c4.359374-.71875 8.472656 2.289062 9.152343 6.648437.695313 4.367188-2.28125 8.464844-6.648437 9.152344l-171.199219 27.089844c-.433594.070312-.851563.101562-1.265625.101562zm0 0"/><path d="m295.839844 245.542969c-3.863282 0-7.261719-2.808594-7.886719-6.75-.695313-4.359375 2.28125-8.464844 6.648437-9.152344l171.191407-27.144531c4.402343-.734375 8.457031 2.28125 9.152343 6.648437.695313 4.359375-2.28125 8.464844-6.648437 9.152344l-171.191406 27.144531c-.421875.078125-.847657.101563-1.265625.101563zm0 0"/><path d="m294.328125 242.542969c-2.046875 0-4.09375-.78125-5.65625-2.34375-3.125-3.128907-3.125-8.183594 0-11.3125l122.578125-122.527344c3.128906-3.128906 8.183594-3.128906 11.3125 0s3.128906 8.183594 0 11.3125l-122.578125 122.527344c-1.558594 1.570312-3.605469 2.34375-5.65625 2.34375zm0 0"/><path d="m277.378906 225.585938c-2.050781 0-4.097656-.785157-5.65625-2.347657-3.128906-3.125-3.128906-8.183593 0-11.308593l122.542969-122.570313c3.128906-3.128906 8.183594-3.128906 11.3125 0s3.128906 8.183594 0 11.3125l-122.542969 122.566406c-1.570312 1.570313-3.609375 2.347657-5.65625 2.347657zm0 0"/><path d="m274.394531 224.070312c-.417969 0-.832031-.03125-1.257812-.101562-4.367188-.6875-7.34375-4.792969-6.648438-9.152344l27.136719-171.183594c.695312-4.367187 4.785156-7.359374 9.152344-6.648437 4.367187.6875 7.34375 4.792969 6.648437 9.152344l-27.136719 171.183593c-.632812 3.945313-4.03125 6.75-7.894531 6.75zm0 0"/><path d="m250.707031 220.3125c-.417969 0-.832031-.03125-1.257812-.105469-4.367188-.6875-7.34375-4.78125-6.648438-9.152343l27.082031-171.191407c.6875-4.359375 4.773438-7.351562 9.152344-6.648437 4.367188.6875 7.34375 4.785156 6.648438 9.152344l-27.082032 171.191406c-.625 3.945312-4.03125 6.753906-7.894531 6.753906zm0 0"/><path d="m247.378906 220.855469c-2.914062 0-5.730468-1.589844-7.136718-4.367188l-78.664063-154.449219c-2.007813-3.933593-.449219-8.757812 3.496094-10.757812 3.933593-2.015625 8.757812-.449219 10.757812 3.496094l78.664063 154.453125c2.007812 3.9375.449218 8.761719-3.496094 10.761719-1.167969.582031-2.40625.863281-3.621094.863281zm0 0"/><path d="m226.007812 231.726562c-2.910156 0-5.71875-1.589843-7.132812-4.367187l-78.714844-154.414063c-2.007812-3.9375-.445312-8.753906 3.496094-10.761718 3.9375-2.023438 8.753906-.449219 10.761719 3.496094l78.703125 154.417968c2.007812 3.933594.449218 8.75-3.496094 10.757813-1.160156.59375-2.398438.871093-3.617188.871093zm0 0"/><path d="m223.625 234.121094c-1.214844 0-2.464844-.28125-3.625-.875l-154.421875-78.726563c-3.9375-2.007812-5.503906-6.824219-3.496094-10.757812 2-3.9375 6.800781-5.515625 10.757813-3.496094l154.425781 78.726563c3.9375 2.007812 5.503906 6.824218 3.496094 10.761718-1.417969 2.765625-4.222657 4.367188-7.136719 4.367188zm0 0"/><path d="m212.738281 255.488281c-1.214843 0-2.464843-.28125-3.625-.871093l-154.464843-78.679688c-3.933594-2-5.503907-6.824219-3.496094-10.761719 1.992187-3.929687 6.800781-5.503906 10.761718-3.496093l154.464844 78.671874c3.933594 2 5.503906 6.824219 3.496094 10.761719-1.417969 2.773438-4.226562 4.375-7.136719 4.375zm0 0"/></svg>