<svg height="448pt" viewBox="0 0 448 448" width="448pt" xmlns="http://www.w3.org/2000/svg"><path d="m224 0c-123.710938 0-224 100.289062-224 224s100.289062 224 224 224 224-100.289062 224-224c-.140625-123.652344-100.347656-223.859375-224-224zm101.65625 314.34375c2.078125 2.007812 2.914062 4.984375 2.179688 7.78125-.730469 2.796875-2.914063 4.980469-5.710938 5.710938-2.796875.734374-5.773438-.101563-7.78125-2.179688l-90.34375-90.34375-90.34375 90.34375c-3.140625 3.03125-8.128906 2.988281-11.214844-.097656-3.085937-3.085938-3.128906-8.074219-.097656-11.214844l90.34375-90.34375-90.34375-90.34375c-3.03125-3.140625-2.988281-8.128906.097656-11.214844 3.085938-3.085937 8.074219-3.128906 11.214844-.097656l90.34375 90.34375 90.34375-90.34375c3.140625-3.03125 8.128906-2.988281 11.214844.097656 3.085937 3.085938 3.128906 8.074219.097656 11.214844l-90.34375 90.34375zm0 0"/></svg>